<?xml version="1.0" encoding="utf-8"?>
<!-- Generator: Adobe Illustrator 24.0.2, SVG Export Plug-In . SVG Version: 6.00 Build 0)  -->
<svg version="1.1" id="Layer_1" xmlns="http://www.w3.org/2000/svg" xmlns:xlink="http://www.w3.org/1999/xlink" x="0px" y="0px"
	 viewBox="0 0 700 700" style="enable-background:new 0 0 700 700;" xml:space="preserve">
<style type="text/css">
	.st0{fill:#08162C;}
	.st1{fill:#FFFFFF;}
</style>
<path class="st0" d="M627.13,700H72.87C32.63,700,0,667.37,0,627.13V72.87C0,32.63,32.63,0,72.87,0h554.26
	C667.37,0,700,32.63,700,72.87v554.26C700,667.37,667.37,700,627.13,700z"/>
<g>
	<path class="st1" d="M103.21,352.28c0,0-4.94-228.21,229.44-228.21s230.15,0,230.15,0v42.23H334.75c0,0-181.59-4.22-185.81,185.81"
		/>
	<path class="st1" d="M103.21,347.72c0,0-4.94,228.21,229.44,228.21s230.15,0,230.15,0V533.7H334.75c0,0-181.59,4.22-185.81-185.81"
		/>
</g>
<g>
	<path class="st1" d="M121.85,352.35c0,0-4.74-218.96,220.13-218.96s220.82,0,220.82,0v40.52H344c0,0-174.22-4.05-178.28,178.28"/>
	<path class="st1" d="M121.85,347.98c0,0-4.74,218.96,220.13,218.96s220.82,0,220.82,0v-40.52H344c0,0-174.22,4.05-178.28-178.28"/>
</g>
</svg>
