<?xml version="1.0" encoding="utf-8"?>
<!-- Generator: Adobe Illustrator 24.0.2, SVG Export Plug-In . SVG Version: 6.00 Build 0)  -->
<svg version="1.1" id="Layer_1" xmlns="http://www.w3.org/2000/svg" xmlns:xlink="http://www.w3.org/1999/xlink" x="0px" y="0px"
	 viewBox="0 0 768 768" style="enable-background:new 0 0 768 768;" xml:space="preserve">
<style type="text/css">
	.st0{stroke:#000000;stroke-miterlimit:10;}
	.st1{fill:#FFFFFF;}
	.st2{enable-background:new    ;}
	.st3{fill:none;}
	
		.st4{opacity:0.99;clip-path:url(#SVGID_3_);fill:url(#SVGID_5_);stroke:#000000;stroke-width:2;stroke-miterlimit:10;enable-background:new    ;}
	.st5{fill:none;stroke:#000000;stroke-width:2;stroke-miterlimit:10;}
	
		.st6{opacity:0.99;clip-path:url(#SVGID_8_);fill:url(#SVGID_9_);stroke:#000000;stroke-width:2;stroke-miterlimit:10;enable-background:new    ;}
	
		.st7{opacity:0.99;clip-path:url(#SVGID_12_);fill:url(#SVGID_14_);stroke:#000000;stroke-width:2;stroke-miterlimit:10;enable-background:new    ;}
	
		.st8{opacity:0.99;clip-path:url(#SVGID_17_);fill:url(#SVGID_18_);stroke:#000000;stroke-width:2;stroke-miterlimit:10;enable-background:new    ;}
	
		.st9{opacity:0.99;clip-path:url(#SVGID_20_);fill:url(#SVGID_21_);stroke:#000000;stroke-width:2;stroke-miterlimit:10;enable-background:new    ;}
	
		.st10{opacity:0.99;clip-path:url(#SVGID_23_);fill:url(#SVGID_24_);stroke:#000000;stroke-width:2;stroke-miterlimit:10;enable-background:new    ;}
	.st11{fill:none;stroke:#000000;stroke-width:2;stroke-miterlimit:9.9998;}
</style>
<g>
	<g>
		<path class="st0" d="M64.5,591.4c0,0-0.9-43.6,43.9-43.6s44,0,44,0v8.1h-43.6c0,0-34.7-0.8-35.5,35.5"/>
		<path class="st0" d="M64.5,590.6c0,0-0.9,43.6,43.9,43.6s44,0,44,0v-8.1h-43.6c0,0-34.7,0.8-35.5-35.5"/>
	</g>
	<g>
		<path d="M196.4,633.7c-40.3,0-43.2-35.2-43.4-42.3c0,0,0-0.5,0-0.6l0-0.2c0.2-7.1,3.1-42.3,43.4-42.3h43.5v7.1h-43.3
			c-3.3,0-32.5,0.9-35.6,31.9l-0.1,0.5h69.3v7.9h-69.1l0.1,0.6c3.9,29.5,32.2,30.3,35.4,30.3h43.3v7.1L196.4,633.7L196.4,633.7z"/>
		<path d="M239.4,548.8v6.1h-42.6h-0.2c-1.5,0-9.6,0.2-17.8,4.3c-10.7,5.3-17,15-18.3,28.1l-0.1,1.1h1.1h68.2v6.9h-68h-1.1l0.1,1.1
			c1.7,12.4,8.1,21.6,18.5,26.7c8.1,3.9,15.9,4.1,17.4,4.1h0.2h42.6v6.1h-43c-16.9,0-29.2-6.3-36.4-18.6c-5.7-9.7-6.4-20.2-6.4-23.2
			l0-0.3c0,0,0-0.1,0-0.2c0,0,0,0,0-0.1l0-0.3c0.1-3,0.8-13.5,6.4-23.2c7.2-12.3,19.5-18.6,36.4-18.6L239.4,548.8 M240.4,547.8
			c0,0-1.4,0-44,0c-41.1,0-43.7,36.7-43.9,42.8h0c0,0,0,0.2,0,0.4c0,0.3,0,0.4,0,0.4h0c0.1,6.1,2.8,42.8,43.9,42.8c42.6,0,44,0,44,0
			v-8.1h-43.6c0,0-0.1,0-0.2,0c-2.5,0-31-0.7-34.9-29.9h69v-8.9h-69.2c3.1-30.8,32.5-31.5,35.1-31.5c0.1,0,0.2,0,0.2,0h43.6
			L240.4,547.8L240.4,547.8z"/>
	</g>
	<g>
		<path d="M477.4,633.7c-40.3,0-43.2-35.2-43.4-42.3c0,0,0-0.6,0-0.6l0-0.2c0.2-7.1,3.1-42.3,43.4-42.3h43.5v7.1h-43.3
			c-3.3,0-32.5,0.9-35.6,31.9l0,0.5h69.3v7.9h-69.1l0.1,0.6c3.9,29.5,32.2,30.3,35.4,30.3h43.3v7.1L477.4,633.7L477.4,633.7z"/>
		<path d="M520.4,548.8v6.1h-42.6h-0.2c-1.5,0-9.6,0.2-17.8,4.3c-10.7,5.3-17,15-18.3,28.1l-0.1,1.1h1.1h68.2v6.9h-68h-1.1l0.1,1.1
			c1.7,12.4,8.1,21.6,18.5,26.7c8.1,3.9,15.9,4.1,17.4,4.1h0.2h42.6v6.1h-43c-16.9,0-29.2-6.3-36.4-18.6c-5.7-9.7-6.4-20.2-6.5-23.2
			l0-0.3c0,0,0-0.1,0-0.2c0,0,0,0,0-0.1l0-0.3c0.1-3,0.8-13.5,6.5-23.2c7.2-12.3,19.5-18.6,36.4-18.6L520.4,548.8 M521.4,547.8
			c0,0-1.5,0-44,0c-41.1,0-43.7,36.7-43.9,42.8h0c0,0,0,0.2,0,0.4c0,0.3,0,0.4,0,0.4h0c0.1,6.1,2.8,42.8,43.9,42.8c42.6,0,44,0,44,0
			v-8.1h-43.6c0,0-0.1,0-0.2,0c-2.5,0-31-0.7-34.9-29.9h69v-8.9h-69.2c3-30.8,32.5-31.5,35.1-31.5c0.1,0,0.2,0,0.2,0h43.6
			L521.4,547.8L521.4,547.8z"/>
	</g>
	<g>
		<polygon points="418.5,633.7 418.5,594.9 349.7,594.9 349.7,633.7 341,633.7 341,547.5 349.7,547.5 349.7,586.3 418.5,586.3 
			418.5,547.5 427.2,547.5 427.2,633.7 		"/>
		<path d="M426.7,548v37.8v9.7v37.8H419v-37.8v-1h-1h-67.8h-1v1v37.8h-7.7v-37.8v-9.7V548h7.7v37.8v1h1H418h1v-1V548H426.7
			 M427.7,547H418v38.8h-67.8V547h-9.7v38.8v9.7v38.8h9.7v-38.8H418v38.8h9.7v-38.8v-9.7L427.7,547L427.7,547z"/>
	</g>
	<g>
		<polygon points="528.4,633.7 528.4,625 567.1,625 567.1,556.2 528.4,556.2 528.4,547.5 614.6,547.5 614.6,556.2 575.8,556.2 
			575.8,625 614.6,625 614.6,633.7 		"/>
		<path d="M614.1,548v7.7h-37.8h-1v1v67.8v1h1h37.8v7.7h-37.8h-9.7h-37.8v-7.7h37.8h1v-1v-67.8v-1h-1h-37.8V548h37.8h9.7H614.1
			 M615.1,547h-38.8h-9.7h-38.8v9.7h38.8v67.8h-38.8v9.7h38.8h9.7h38.8v-9.7h-38.8v-67.8h38.8V547L615.1,547z"/>
	</g>
	<g>
		<path d="M622,634.5v-87h43.5c40.3,0,43.2,35.9,43.4,43.1c0,0,0,0.6,0,0.6l0,0.2c-0.2,7.2-3.1,43.1-43.4,43.1H622z M629.1,627.3
			h36.2c3.6,0,34.8-1,35.8-36.3c-1-35.3-32.3-36.3-35.8-36.3h-36.2V627.3z"/>
		<path d="M665.5,547v1c16.9,0,29.2,6.4,36.4,18.9c5.7,9.9,6.4,20.6,6.5,23.6l0,0.3c0,0,0,0.1,0,0.2c0,0,0,0,0,0.1l0,0.3
			c-0.1,3-0.8,13.7-6.5,23.6c-7.2,12.6-19.5,18.9-36.4,18.9h-43v-78.8V548h43V547 M628.6,627.8h1h35.5h0.2c1.6,0,10.3-0.2,18.8-4.9
			c7.7-4.2,17-13.2,17.6-31.9v0v0c-0.5-18.7-9.8-27.7-17.6-31.9c-8.5-4.6-17.1-4.9-18.8-4.9l0,0h-0.2h-35.5h-1v1v71.5V627.8
			 M665.5,547c-42.6,0-44,0-44,0v0.8v7.4v79l0,0v0.8c0,0,1.5,0,44,0c41.1,0,43.7-37.3,43.9-43.6h0c0,0,0-0.2,0-0.4s0-0.4,0-0.4h0
			C709.3,584.3,706.6,547,665.5,547L665.5,547z M629.6,626.8v-71.5h35.5c0,0,0.1,0,0.2,0c2.7,0,34.3,0.7,35.3,35.8
			c-1,35-32.7,35.8-35.3,35.8c-0.1,0-0.2,0-0.2,0L629.6,626.8L629.6,626.8z"/>
	</g>
	<g>
		<path d="M247.4,633.7v-86.2h62.5c1,0,23.7,0.3,23.7,23.3s-22.8,23.3-23.7,23.3H256v39.6H247.4z"/>
		<path d="M309.8,548L309.8,548c0.1,0,6,0,11.7,2.9c7.6,3.8,11.5,10.5,11.5,19.9s-3.9,16.1-11.5,19.9c-5.8,2.9-11.7,2.9-11.7,2.9
			h-53.3h-1v1v38.6h-7.7v-38.6v-8.1v-31.5V548h8.7L309.8,548 M309.8,547h-53.3h-9.7v8.1v31.5v8.1v39.6h9.7v-39.6h53.3
			c0,0,24.2,0,24.2-23.8S309.8,547,309.8,547L309.8,547z"/>
	</g>
	<g>
		<path class="st1" d="M257,586.1v-30.5h52.8c0.6,0,15.6,0.2,15.6,15.3c0,15.1-15,15.3-15.6,15.3L257,586.1L257,586.1z"/>
		<path d="M309.8,556.1L309.8,556.1c0.6,0,15.1,0.2,15.1,14.8s-14.5,14.7-15.1,14.8h-52.3v-29.5L309.8,556.1 M309.8,555.1h-53.3
			v31.5h53.3c0,0,16.1,0,16.1-15.8C326,555.1,309.8,555.1,309.8,555.1L309.8,555.1z"/>
	</g>
</g>
<g class="st2">
	<path d="M156.4,702.7c0,0.9,0,1.4,0.2,2h-2.4c0.1-0.6,0.2-1.1,0.2-2v-8.8c0-0.9,0-1.4-0.2-2h2.4c-0.1,0.6-0.2,1.1-0.2,2V702.7z"/>
	<path d="M184.2,702.7c0,0.9,0,1.4,0.2,2H182c0.1-0.6,0.2-1.1,0.2-2v-8.8c0-0.9,0-1.4-0.2-2h2.4c-0.1,0.6-0.2,1.1-0.2,2V702.7z"/>
	<path d="M211,693c-1,0-1.9,0.1-2.4,0.2l0.2-1.2h10.3l0.2,1.2c-0.5-0.1-1.4-0.2-2.4-0.2h-2v9.8c0,0.9,0,1.4,0.2,2h-2.4
		c0.1-0.6,0.2-1.1,0.2-2V693H211z"/>
	<path d="M275,698.7v4c0,0.9,0,1.4,0.2,2h-2.4c0.1-0.6,0.2-1.1,0.2-2v-8.8c0-0.9,0-1.4-0.2-2h2.4c-0.1,0.6-0.2,1.1-0.2,2v3.8h7.5
		v-3.8c0-0.9,0-1.4-0.2-2h2.4c-0.1,0.6-0.2,1.1-0.2,2v8.8c0,0.9,0,1.4,0.2,2h-2.4c0.1-0.6,0.2-1.1,0.2-2v-4H275z"/>
	<path d="M318.5,692.9c0.2-0.4,0.3-0.6,0.4-0.9h1.8c-0.7,0.7-1.1,1.3-1.7,2.2l-3.5,5.3v3.3c0,0.9,0,1.4,0.2,2h-2.4
		c0.1-0.6,0.2-1.1,0.2-2v-3.3l-2.8-4.1c-0.6-0.9-2.1-3-2.4-3.4h2.9c0.2,0.7,0.2,0.9,1,2l2.9,4.3L318.5,692.9z"/>
	<path d="M344.4,693.9c0-0.9,0-1.4-0.2-2h8.8c2.1,0,2.8,0.5,2.8,2.5v7.8c0,2-0.7,2.5-2.8,2.5h-8.8c0.1-0.6,0.2-1.1,0.2-2V693.9z
		 M346.4,703.7h6.5c0.7,0,0.9-0.2,0.9-1V694c0-0.8-0.2-1-0.9-1h-6.5V703.7z"/>
	<path d="M390.2,691.9l0.1,1.2c-0.4-0.1-1-0.1-2.5-0.1h-5.2v4.8h4.7c1.5,0,2.1-0.1,2.6-0.1v1.3c-0.5-0.1-1.1-0.1-2.6-0.1h-4.7v4.8
		h5.2c1.5,0,2.1-0.1,2.5-0.1l-0.1,1.2h-9.8c0.1-0.6,0.2-1.1,0.2-2v-8.8c0-0.9,0-1.4-0.2-2H390.2z"/>
	<path d="M416.7,698.9v3.8c0,0.9,0,1.4,0.2,2h-2.4c0.1-0.6,0.2-1.1,0.2-2v-8.8c0-0.9,0-1.4-0.2-2h8.8c2.1,0,2.8,0.5,2.8,2.5v2
		c0,2-0.7,2.5-2.4,2.5c0.9,2,2,4.6,2.9,5.8h-2.3l-2.7-5.8H416.7z M416.7,697.9h6.5c0.7,0,0.9-0.2,0.9-1V694c0-0.8-0.2-1-0.9-1h-6.5
		V697.9z"/>
	<path d="M461.2,704.7c-0.1-0.7-0.4-1.4-0.7-2.1l-0.9-1.8h-6.8l-1,2.2c-0.5,1-0.6,1.4-0.6,1.8h-1.7c0.4-0.4,0.6-0.9,0.9-1.4
		l5.1-10.6c-0.2-0.4-0.4-0.5-0.7-0.8h2.6l5.1,10.5c0.5,1,0.9,1.7,1.3,2.3H461.2z M456.2,693.7l-2.9,6.1h5.9L456.2,693.7z"/>
	<path d="M487.6,693.9c0-0.9,0-1.4-0.2-2h8.8c2.1,0,2.8,0.5,2.8,2.5v2.1c0,1.4-0.5,1.6-1.7,1.7v0c1.2,0.1,1.7,0.3,1.7,1.7v2.3
		c0,2-0.7,2.5-2.8,2.5h-8.8c0.2-0.6,0.2-1.1,0.2-2V693.9z M489.6,697.6h6.5c0.7,0,0.9-0.2,0.9-1V694c0-0.8-0.2-1-0.9-1h-6.5V697.6z
		 M489.6,703.7h6.5c0.7,0,0.9-0.2,0.9-1v-3.1c0-0.8-0.2-1-0.9-1h-6.5V703.7z"/>
	<path d="M534.1,704.7c-0.1-0.7-0.4-1.4-0.7-2.1l-0.9-1.8h-6.8l-1,2.2c-0.5,1-0.6,1.4-0.6,1.8h-1.7c0.4-0.4,0.6-0.9,0.9-1.4
		l5.1-10.6c-0.2-0.4-0.4-0.5-0.7-0.8h2.6l5.1,10.5c0.5,1,0.9,1.7,1.3,2.3H534.1z M529,693.7l-2.9,6.1h5.9L529,693.7z"/>
	<path d="M560.4,693.9c0-0.9,0-1.4-0.2-2h8.8c2.1,0,2.8,0.5,2.8,2.5v7.8c0,2-0.7,2.5-2.8,2.5h-8.8c0.1-0.6,0.2-1.1,0.2-2V693.9z
		 M562.5,703.7h6.5c0.7,0,0.9-0.2,0.9-1V694c0-0.8-0.2-1-0.9-1h-6.5V703.7z"/>
</g>
<rect x="-0.5" y="0.5" class="st3" width="768" height="768"/>
<g>
	<g>
		<path class="st1" d="M249.9,258.6c-5.7,0-10.8-3.6-12.6-9c-1.1-3.4-0.9-7,0.7-10.1s4.3-5.6,7.6-6.7l64.3-21.8
			c1.4-0.5,2.8-0.7,4.3-0.7c5.7,0,10.8,3.6,12.6,9c2.4,6.9-1.4,14.5-8.3,16.9l-64.3,21.8C252.8,258.4,251.3,258.6,249.9,258.6
			L249.9,258.6z"/>
		<path d="M314.2,210.8c5.5,0,10.4,3.5,12.1,8.7c1.1,3.2,0.9,6.7-0.6,9.8s-4.1,5.4-7.4,6.4L254,257.5c-1.3,0.5-2.7,0.7-4.1,0.7
			c-5.5,0-10.4-3.5-12.1-8.7c-1.1-3.2-0.9-6.7,0.6-9.8s4.1-5.4,7.4-6.4l64.3-21.8C311.4,211,312.8,210.8,314.2,210.8 M314.2,209.8
			c-1.5,0-3,0.2-4.4,0.7l-64.3,21.8c-7.2,2.4-11.1,10.3-8.6,17.5l0,0c1.9,5.7,7.3,9.4,13.1,9.4c1.5,0,3-0.2,4.4-0.7l64.3-21.8
			c7.2-2.4,11.1-10.3,8.6-17.5l0,0C325.3,213.4,320,209.8,314.2,209.8L314.2,209.8z"/>
	</g>
	<g>
		<g>
			<defs>
				<path id="SVGID_2_" d="M420.8,454.6l-23.4-193.8c-0.4-3.5-3-6.3-6.2-7.1c-0.4-0.1-0.7-0.2-1.1-0.2c-0.6-0.1-1.3-0.1-1.9,0h-23.6
					c-0.1,0-0.3,0-0.4,0c-3.4-0.3-6.7,1.5-8.4,4.7l-98.1,192.1c-2.2,4.3-0.5,9.5,3.8,11.6l0,0c4.3,2.2,9.5,0.5,11.6-3.8l94.9-185.7
					h13.5l22.3,184.2c0.6,4.6,4.8,7.9,9.4,7.3l0.5-0.1C418.1,463.4,421.3,459.2,420.8,454.6z"/>
			</defs>
			<clipPath id="SVGID_3_">
				<use xlink:href="#SVGID_2_"  style="overflow:visible;"/>
			</clipPath>
			
				<linearGradient id="SVGID_5_" gradientUnits="userSpaceOnUse" x1="382.89" y1="306.26" x2="382.89" y2="641.26" gradientTransform="matrix(1 0 0 -1 0 770)">
				<stop  offset="0" style="stop-color:#21BB1D"/>
				<stop  offset="1" style="stop-color:#2026C8"/>
			</linearGradient>
			<rect x="180.9" y="128.7" class="st4" width="404" height="335"/>
		</g>
		<g>
			<path id="SVGID_1_" class="st5" d="M420.8,454.6l-23.4-193.8c-0.4-3.5-3-6.3-6.2-7.1c-0.4-0.1-0.7-0.2-1.1-0.2
				c-0.6-0.1-1.3-0.1-1.9,0h-23.6c-0.1,0-0.3,0-0.4,0c-3.4-0.3-6.7,1.5-8.4,4.7l-98.1,192.1c-2.2,4.3-0.5,9.5,3.8,11.6l0,0
				c4.3,2.2,9.5,0.5,11.6-3.8l94.9-185.7h13.5l22.3,184.2c0.6,4.6,4.8,7.9,9.4,7.3l0.5-0.1C418.1,463.4,421.3,459.2,420.8,454.6z"/>
		</g>
	</g>
	<g>
		<g>
			<defs>
				<path id="SVGID_6_" d="M490,463.9L490,463.9c-4.5,1.7-9.5-0.5-11.2-5l-74.7-193.6c-1.7-4.5,0.5-9.5,5-11.2l0,0
					c4.5-1.7,9.5,0.5,11.2,5L495,452.6C496.7,457.1,494.5,462.1,490,463.9z"/>
			</defs>
			<clipPath id="SVGID_8_">
				<use xlink:href="#SVGID_6_"  style="overflow:visible;"/>
			</clipPath>
			
				<linearGradient id="SVGID_9_" gradientUnits="userSpaceOnUse" x1="383" y1="306" x2="383" y2="641" gradientTransform="matrix(1 0 0 -1 0 770)">
				<stop  offset="0" style="stop-color:#21BB1D"/>
				<stop  offset="1" style="stop-color:#2026C8"/>
			</linearGradient>
			<rect x="181" y="129" class="st6" width="404" height="335"/>
		</g>
		<g>
			<path id="SVGID_4_" class="st5" d="M490,463.9L490,463.9c-4.5,1.7-9.5-0.5-11.2-5l-74.7-193.6c-1.7-4.5,0.5-9.5,5-11.2l0,0
				c4.5-1.7,9.5,0.5,11.2,5L495,452.6C496.7,457.1,494.5,462.1,490,463.9z"/>
		</g>
	</g>
	<g>
		<g>
			<defs>
				<path id="SVGID_11_" d="M309.8,210.5l-64.3,21.8c-7.2,2.4-11.1,10.3-8.6,17.5l0,0c2.4,7.2,10.3,11.1,17.5,8.6l64.3-21.8
					c7.2-2.4,11.1-10.3,8.6-17.5l0,0C324.8,211.9,317,208.1,309.8,210.5z"/>
			</defs>
			<clipPath id="SVGID_12_">
				<use xlink:href="#SVGID_11_"  style="overflow:visible;"/>
			</clipPath>
			
				<linearGradient id="SVGID_14_" gradientUnits="userSpaceOnUse" x1="383" y1="306" x2="383" y2="641" gradientTransform="matrix(1 0 0 -1 0 770)">
				<stop  offset="0" style="stop-color:#21BB1D"/>
				<stop  offset="1" style="stop-color:#2026C8"/>
			</linearGradient>
			<rect x="181" y="129" class="st7" width="404" height="335"/>
		</g>
		<g>
			<path id="SVGID_7_" class="st5" d="M309.8,210.5l-64.3,21.8c-7.2,2.4-11.1,10.3-8.6,17.5l0,0c2.4,7.2,10.3,11.1,17.5,8.6
				l64.3-21.8c7.2-2.4,11.1-10.3,8.6-17.5l0,0C324.8,211.9,317,208.1,309.8,210.5z"/>
		</g>
	</g>
	<g>
		<g>
			<defs>
				<path id="SVGID_15_" d="M394.4,175.3l-82,27.8c-10.3,3.5-15.9,14.7-12.4,25l0,0c3.5,10.3,14.7,15.9,25,12.4l82-27.8
					c10.3-3.5,15.9-14.7,12.4-25l0,0C415.9,177.3,404.7,171.8,394.4,175.3z"/>
			</defs>
			<clipPath id="SVGID_17_">
				<use xlink:href="#SVGID_15_"  style="overflow:visible;"/>
			</clipPath>
			
				<linearGradient id="SVGID_18_" gradientUnits="userSpaceOnUse" x1="383.81" y1="306.13" x2="383.81" y2="641.13" gradientTransform="matrix(1 0 0 -1 0 770)">
				<stop  offset="0" style="stop-color:#21BB1D"/>
				<stop  offset="1" style="stop-color:#2026C8"/>
			</linearGradient>
			<rect x="181.8" y="128.9" class="st8" width="404" height="335"/>
		</g>
		<g>
			<path id="SVGID_10_" class="st5" d="M394.4,175.3l-82,27.8c-10.3,3.5-15.9,14.7-12.4,25l0,0c3.5,10.3,14.7,15.9,25,12.4l82-27.8
				c10.3-3.5,15.9-14.7,12.4-25l0,0C415.9,177.3,404.7,171.8,394.4,175.3z"/>
		</g>
	</g>
	<g>
		<g>
			<defs>
				<path id="SVGID_19_" d="M522.6,181.3l-17.5-51.7l-107.2,36.4l0,0.1l-10.6,3.6c-14.3,4.8-21.9,20.3-17.1,34.6l0,0
					c4.8,14.3,20.3,21.9,34.6,17.1l91.7-31.1c0.7-0.3,1.5-0.5,2.2-0.9L522.6,181.3z"/>
			</defs>
			<clipPath id="SVGID_20_">
				<use xlink:href="#SVGID_19_"  style="overflow:visible;"/>
			</clipPath>
			
				<linearGradient id="SVGID_21_" gradientUnits="userSpaceOnUse" x1="383.22" y1="305.88" x2="383.22" y2="640.88" gradientTransform="matrix(1 0 0 -1 0 770)">
				<stop  offset="0" style="stop-color:#21BB1D"/>
				<stop  offset="1" style="stop-color:#2026C8"/>
			</linearGradient>
			<rect x="181.2" y="129.1" class="st9" width="404" height="335"/>
		</g>
		<g>
			<path id="SVGID_13_" class="st5" d="M522.6,181.3l-17.5-51.7l-107.2,36.4l0,0.1l-10.6,3.6c-14.3,4.8-21.9,20.3-17.1,34.6l0,0
				c4.8,14.3,20.3,21.9,34.6,17.1l91.7-31.1c0.7-0.3,1.5-0.5,2.2-0.9L522.6,181.3z"/>
		</g>
	</g>
	<g>
		<g>
			<defs>
				
					<ellipse id="SVGID_22_" transform="matrix(0.9399 -0.3414 0.3414 0.9399 -22.2398 184.8035)" cx="513.9" cy="155.6" rx="15.4" ry="27.6"/>
			</defs>
			<clipPath id="SVGID_23_">
				<use xlink:href="#SVGID_22_"  style="overflow:visible;"/>
			</clipPath>
			
				<linearGradient id="SVGID_24_" gradientUnits="userSpaceOnUse" x1="370.9573" y1="300.8218" x2="370.9573" y2="650.2867" gradientTransform="matrix(0.9995 -3.170000e-02 -3.170000e-02 -0.9995 29.7733 793.6908)">
				<stop  offset="0" style="stop-color:#21BB1D"/>
				<stop  offset="1" style="stop-color:#2026C8"/>
			</linearGradient>
			<polygon class="st10" points="598,474.5 183.9,487.8 173,138.8 587.1,125.4 			"/>
		</g>
		<g>
			
				<ellipse id="SVGID_16_" transform="matrix(0.9399 -0.3414 0.3414 0.9399 -22.2398 184.8035)" class="st11" cx="513.9" cy="155.6" rx="15.4" ry="27.6"/>
		</g>
	</g>
	<g>
		<path d="M513.1,174.1c-4.9,0-10.3-6-12.9-14.3c-1.4-4.6-1.8-9.2-1-12.9c0.8-3.7,2.5-6.1,4.9-6.9c0.5-0.2,1.1-0.3,1.6-0.3
			c4.9,0,10.3,6,12.9,14.3c1.4,4.6,1.8,9.2,1,12.9c-0.8,3.7-2.5,6.1-4.9,6.9C514.2,174.1,513.7,174.1,513.1,174.1z"/>
		<path d="M505.6,139.4v1c4.6,0,9.9,6,12.4,13.9c1.4,4.5,1.8,9,1,12.7c-0.7,3.5-2.3,5.8-4.5,6.5c-0.5,0.1-1,0.2-1.5,0.2
			c-4.6,0-9.9-6-12.4-13.9c-1.4-4.5-1.8-9-1-12.7c0.7-3.5,2.3-5.8,4.5-6.5c0.5-0.1,1-0.2,1.5-0.2L505.6,139.4 M505.6,139.4
			c-0.6,0-1.2,0.1-1.8,0.3c-5.3,1.7-7.2,10.8-4.2,20.4c2.7,8.6,8.4,14.6,13.4,14.6c0.6,0,1.2-0.1,1.8-0.3c5.3-1.7,7.2-10.8,4.2-20.4
			C516.3,145.4,510.6,139.4,505.6,139.4L505.6,139.4z"/>
	</g>
</g>
</svg>
